<svg width="32" height="32" viewBox="0 0 32 32" fill="none" xmlns="http://www.w3.org/2000/svg">
<path fill-rule="evenodd" clip-rule="evenodd" d="M7.22862 12.8431C7.22862 10.4977 8.15274 8.24847 9.79769 6.59007C11.4426 4.93168 13.6737 4 16 4C18.3263 4 20.5573 4.93168 22.2023 6.59007C23.8472 8.24847 24.7714 10.4977 24.7714 12.8431V17.5981L27.0544 22.2015C27.1595 22.4134 27.2092 22.6489 27.1986 22.8855C27.188 23.1222 27.1176 23.3522 26.9941 23.5537C26.8706 23.7552 26.698 23.9215 26.4927 24.0369C26.2875 24.1522 26.0564 24.2127 25.8214 24.2127H20.8543C20.5756 25.2969 19.9477 26.2571 19.0691 26.9426C18.1905 27.6281 17.1109 28 16 28C14.889 28 13.8095 27.6281 12.9309 26.9426C12.0523 26.2571 11.4244 25.2969 11.1457 24.2127H6.17856C5.94358 24.2127 5.7125 24.1522 5.50726 24.0369C5.30201 23.9215 5.12942 23.7552 5.00588 23.5537C4.88234 23.3522 4.81195 23.1222 4.80139 22.8855C4.79083 22.6489 4.84046 22.4134 4.94555 22.2015L7.22862 17.5981V12.8431ZM13.8297 24.2127C14.0497 24.5968 14.366 24.9157 14.747 25.1374C15.128 25.3592 15.5601 25.4759 16 25.4759C16.4399 25.4759 16.872 25.3592 17.253 25.1374C17.634 24.9157 17.9503 24.5968 18.1703 24.2127H13.8297ZM16 6.52659C14.3383 6.52659 12.7447 7.19207 11.5698 8.37664C10.3948 9.56121 9.73472 11.1678 9.73472 12.8431V17.5981C9.7347 17.9901 9.64418 18.3768 9.47033 18.7275L8.00426 21.6861H23.997L22.5309 18.7275C22.3566 18.3769 22.2657 17.9902 22.2653 17.5981V12.8431C22.2653 11.1678 21.6052 9.56121 20.4302 8.37664C19.2552 7.19207 17.6616 6.52659 16 6.52659Z" fill="#01ADB9"/>
</svg>
