<svg width="22" height="28" viewBox="0 0 22 28" fill="none" xmlns="http://www.w3.org/2000/svg">
<path d="M3.74 20.496C4.09009 20.392 4.4664 20.4339 4.78614 20.6125C5.10589 20.791 5.34289 21.0915 5.445 21.448C5.54711 21.8045 5.50596 22.1876 5.33062 22.5132C5.15527 22.8387 4.86009 23.08 4.51 23.184C3.8225 23.3884 3.3275 23.604 3.00988 23.8C3.33713 24.0002 3.85412 24.2242 4.57187 24.4328C6.16 24.8948 8.43287 25.2 11 25.2C13.5671 25.2 15.84 24.8948 17.4281 24.4328C18.1472 24.2242 18.6629 24.0002 18.9901 23.8C18.6739 23.604 18.1789 23.3884 17.4914 23.184C17.1468 23.0755 16.8579 22.8334 16.687 22.51C16.516 22.1866 16.4768 21.8078 16.5776 21.4552C16.6784 21.1026 16.9113 20.8044 17.226 20.625C17.5407 20.4456 17.9121 20.3993 18.26 20.496C19.1785 20.769 20.02 21.119 20.6663 21.5684C21.2644 21.987 22 22.7164 22 23.8C22 24.8962 21.2465 25.6312 20.6388 26.0498C19.9815 26.5006 19.1221 26.852 18.183 27.125C16.2883 27.678 13.75 28 11 28C8.25 28 5.71175 27.678 3.817 27.125C2.87788 26.852 2.0185 26.5006 1.36125 26.0498C0.7535 25.6298 0 24.8962 0 23.8C0 22.7164 0.735625 21.987 1.33375 21.5684C1.98 21.119 2.8215 20.769 3.74 20.496ZM11 0C13.735 0 16.3581 1.10625 18.292 3.07538C20.226 5.04451 21.3125 7.71523 21.3125 10.5C21.3125 14.0952 19.3875 17.0184 17.3937 19.096C16.6012 19.9135 15.7495 20.6693 14.8459 21.357C14.0291 21.9814 12.1619 23.1518 12.1619 23.1518C11.8077 23.3568 11.4074 23.4645 11 23.4645C10.5926 23.4645 10.1923 23.3568 9.83812 23.1518C8.91145 22.6047 8.0154 22.0055 7.15413 21.357C6.24915 20.671 5.39734 19.9151 4.60625 19.096C2.6125 17.0184 0.6875 14.0952 0.6875 10.5C0.6875 7.71523 1.77399 5.04451 3.70796 3.07538C5.64193 1.10625 8.26495 0 11 0ZM11 7.7C10.2707 7.7 9.57118 7.995 9.05546 8.5201C8.53973 9.0452 8.25 9.75739 8.25 10.5C8.25 11.2426 8.53973 11.9548 9.05546 12.4799C9.57118 13.005 10.2707 13.3 11 13.3C11.7293 13.3 12.4288 13.005 12.9445 12.4799C13.4603 11.9548 13.75 11.2426 13.75 10.5C13.75 9.75739 13.4603 9.0452 12.9445 8.5201C12.4288 7.995 11.7293 7.7 11 7.7Z" fill="#01ADB9"/>
</svg>
