<svg width="106" height="32" viewBox="0 0 106 32" fill="none" xmlns="http://www.w3.org/2000/svg">
<rect x="21.532" width="8.8359" height="19.5888" rx="4.41795" transform="rotate(72.5024 21.532 0)" fill="url(#paint0_linear_511_1230)"/>
<g filter="url(#filter0_f_511_1230)">
<ellipse cx="12.0021" cy="10.6307" rx="0.820032" ry="2.34347" transform="rotate(14.2806 12.0021 10.6307)" fill="#017179"/>
</g>
<path fill-rule="evenodd" clip-rule="evenodd" d="M26.4182 25.5677C26.5885 24.93 26.6793 24.2599 26.6793 23.5686L26.6793 7.91019L29.2223 17.4009C30.0609 20.5307 28.8527 23.7267 26.4182 25.5677Z" fill="#01ADB9"/>
<path fill-rule="evenodd" clip-rule="evenodd" d="M26.4182 25.5677C26.5885 24.93 26.6793 24.2599 26.6793 23.5686L26.6793 7.91019L29.2223 17.4009C30.0609 20.5307 28.8527 23.7267 26.4182 25.5677Z" fill="#DBF3F5"/>
<path fill-rule="evenodd" clip-rule="evenodd" d="M19.756 29.823C20.6334 28.8462 21.2733 27.6323 21.563 26.255L25.3809 8.10645C25.3917 8.05515 25.4019 8.00386 25.4117 7.95259C25.4442 8.22231 25.4609 8.49689 25.4609 8.77538L25.4609 23.1126C25.4609 26.4949 22.9908 29.3003 19.756 29.823Z" fill="#01ADB9"/>
<path fill-rule="evenodd" clip-rule="evenodd" d="M19.756 29.823C20.6334 28.8462 21.2733 27.6323 21.563 26.255L25.3809 8.10645C25.3917 8.05515 25.4019 8.00386 25.4117 7.95259C25.4442 8.22231 25.4609 8.49689 25.4609 8.77538L25.4609 23.1126C25.4609 26.4949 22.9908 29.3003 19.756 29.823Z" fill="#BAE9EC"/>
<path d="M20.1125 26.204C19.4943 29.1415 16.6118 31.0217 13.6742 30.4035C10.7367 29.7853 8.85654 26.9028 9.47475 23.9653L13.3754 5.43058C13.9936 2.49305 16.8761 0.612872 19.8136 1.23108C22.7511 1.84928 24.6313 4.73177 24.0131 7.66929L20.1125 26.204Z" fill="#01ADB9"/>
<path d="M20.1125 26.204C19.4943 29.1415 16.6118 31.0217 13.6742 30.4035C10.7367 29.7853 8.85654 26.9028 9.47475 23.9653L13.3754 5.43058C13.9936 2.49305 16.8761 0.612872 19.8136 1.23108C22.7511 1.84928 24.6313 4.73177 24.0131 7.66929L20.1125 26.204Z" fill="url(#paint1_linear_511_1230)" fill-opacity="0.4"/>
<path fill-rule="evenodd" clip-rule="evenodd" d="M10.6761 30.2659C10.1493 30.1693 9.62761 29.9942 9.12705 29.7355L3.00643 26.5733C0.280701 25.165 -0.787318 21.8138 0.62095 19.088C2.02922 16.3623 5.38049 15.2943 8.10622 16.7025L13.4421 19.4594H14.7566C17.8284 19.4594 20.3185 21.9495 20.3185 25.0212C20.3185 28.0929 17.8284 30.5831 14.7566 30.5831L12.5319 30.5831C11.8811 30.5831 11.2565 30.4713 10.6761 30.2659Z" fill="#01ADB9"/>
<path fill-rule="evenodd" clip-rule="evenodd" d="M10.6761 30.2659C10.1493 30.1693 9.62761 29.9942 9.12705 29.7355L3.00643 26.5733C0.280701 25.165 -0.787318 21.8138 0.62095 19.088C2.02922 16.3623 5.38049 15.2943 8.10622 16.7025L13.4421 19.4594H14.7566C17.8284 19.4594 20.3185 21.9495 20.3185 25.0212C20.3185 28.0929 17.8284 30.5831 14.7566 30.5831L12.5319 30.5831C11.8811 30.5831 11.2565 30.4713 10.6761 30.2659Z" fill="url(#paint2_linear_511_1230)" fill-opacity="0.4"/>
<path d="M37.8448 15.3764H41.73V17.8263C41.73 18.7023 41.5598 19.467 41.2194 20.1203C40.879 20.7736 40.3758 21.2784 39.7097 21.6347C39.0585 21.9911 38.2445 22.1693 37.2676 22.1693C36.4832 22.1693 35.8097 22.0282 35.2473 21.7461C34.6997 21.4491 34.4259 20.9295 34.4259 20.1871C34.4259 19.8901 34.4703 19.6303 34.5591 19.4076C34.6479 19.1849 34.7441 19.0067 34.8477 18.8731C35.1289 18.9324 35.3657 18.977 35.5581 19.0067C35.7653 19.0215 35.9874 19.029 36.2242 19.029C36.8014 19.029 37.2158 18.8879 37.4674 18.6058C37.719 18.3088 37.8448 17.8782 37.8448 17.314V15.3764ZM41.73 17.0913H37.8448V8.29399C38.0225 8.26429 38.2815 8.22717 38.6219 8.18263C38.9771 8.12324 39.3175 8.09354 39.6431 8.09354C40.3832 8.09354 40.916 8.21975 41.2416 8.47216C41.5672 8.72457 41.73 9.21455 41.73 9.94209V17.0913Z" fill="#01ADB9"/>
<path d="M44.2634 17.5367V16.0668H48.0376V17.5367C48.0376 18.1307 48.1856 18.5612 48.4816 18.8285C48.7924 19.0958 49.2216 19.2294 49.7693 19.2294C50.1097 19.2294 50.3909 19.1997 50.6129 19.1403C50.8349 19.0809 50.9977 19.0215 51.1013 18.9621V16.0668H54.8755V19.5189C54.8755 19.8901 54.7941 20.2168 54.6313 20.4989C54.4833 20.7661 54.2539 20.9963 53.9431 21.1893C53.425 21.516 52.8034 21.7609 52.0782 21.9243C51.3677 22.1024 50.5907 22.1915 49.7471 22.1915C48.6814 22.1915 47.7342 22.0356 46.9053 21.7238C46.0765 21.3972 45.4252 20.8924 44.9516 20.2094C44.4928 19.5264 44.2634 18.6355 44.2634 17.5367ZM54.8755 17.0245H51.1013V11.0557C51.2641 11.0111 51.4936 10.9666 51.7896 10.922C52.1004 10.8775 52.4334 10.8552 52.7886 10.8552C53.5287 10.8552 54.0615 10.9814 54.3871 11.2339C54.7127 11.4714 54.8755 11.9391 54.8755 12.637V17.0245ZM48.0376 17.0245H44.2634V11.0557C44.4262 11.0111 44.6556 10.9666 44.9516 10.922C45.2624 10.8775 45.5955 10.8552 45.9507 10.8552C46.6907 10.8552 47.2235 10.9814 47.5492 11.2339C47.8748 11.4714 48.0376 11.9391 48.0376 12.637V17.0245Z" fill="#01ADB9"/>
<path d="M66.2876 18.6058C66.2876 19.7342 65.8584 20.6177 64.9999 21.2561C64.1563 21.8946 62.9204 22.2138 61.2923 22.2138C60.0343 22.2138 58.9982 22.0356 58.1842 21.6793C57.3849 21.3081 56.9853 20.7365 56.9853 19.9644C56.9853 19.608 57.0593 19.3036 57.2073 19.0512C57.3553 18.7988 57.5329 18.5984 57.7402 18.4499C58.1694 18.6875 58.6578 18.9027 59.2054 19.0958C59.7679 19.2739 60.4117 19.363 61.1369 19.363C62.0842 19.363 62.5578 19.118 62.5578 18.6281C62.5578 18.4202 62.469 18.2569 62.2914 18.1381C62.1138 18.0193 61.8178 17.9228 61.4033 17.8486L60.7373 17.7149C59.4644 17.4625 58.5098 17.0616 57.8734 16.5122C57.2369 15.9629 56.9187 15.1908 56.9187 14.196C56.9187 13.0824 57.3701 12.2138 58.273 11.5902C59.1758 10.9666 60.3525 10.6548 61.803 10.6548C62.5282 10.6548 63.1868 10.729 63.7789 10.8775C64.3857 11.0111 64.8667 11.2339 65.2219 11.5457C65.5771 11.8426 65.7548 12.2287 65.7548 12.7038C65.7548 13.0304 65.6882 13.32 65.5549 13.5724C65.4365 13.8248 65.2811 14.0327 65.0887 14.196C64.9259 14.0921 64.6669 13.9881 64.3117 13.8842C63.9713 13.7803 63.6012 13.6912 63.2016 13.6169C62.802 13.5427 62.4468 13.5056 62.136 13.5056C61.6475 13.5056 61.2701 13.565 61.0037 13.6837C60.7373 13.7877 60.6041 13.9584 60.6041 14.196C60.6041 14.3593 60.6781 14.4929 60.8261 14.5969C60.9741 14.7008 61.2553 14.7973 61.6698 14.8864L62.358 15.0423C63.7789 15.369 64.7853 15.8218 65.3773 16.4009C65.9842 16.9651 66.2876 17.7001 66.2876 18.6058Z" fill="#01ADB9"/>
<path d="M70.3929 11.4566V8.33853H77.7858C77.8895 8.50186 77.9783 8.71715 78.0523 8.98441C78.1411 9.25167 78.1855 9.5412 78.1855 9.85301C78.1855 10.4024 78.0597 10.8107 77.808 11.078C77.5712 11.3304 77.2456 11.4566 76.8312 11.4566H70.3929ZM74.4779 8.33853V11.4566H67.0849C66.9813 11.2932 66.8851 11.078 66.7963 10.8107C66.7223 10.5434 66.6853 10.2539 66.6853 9.94209C66.6853 9.37788 66.8037 8.96956 67.0405 8.71715C67.2921 8.46474 67.6251 8.33853 68.0396 8.33853H74.4779ZM70.4373 10.8552H74.3225V21.8129C74.1597 21.8575 73.9081 21.902 73.5676 21.9465C73.2272 21.9911 72.8794 22.0134 72.5242 22.0134C71.7545 22.0134 71.2143 21.8797 70.9035 21.6125C70.5927 21.3304 70.4373 20.8478 70.4373 20.1648V10.8552Z" fill="#01ADB9"/>
<path d="M82.6618 14.196V16.735H78.8876V13.6169C78.8876 13.1863 78.9986 12.8151 79.2206 12.5033C79.4574 12.1767 79.7608 11.8946 80.1308 11.657C80.6489 11.3452 81.2557 11.1076 81.9513 10.9443C82.647 10.781 83.3648 10.6993 84.1048 10.6993C85.7181 10.6993 86.5248 11.271 86.5248 12.4143C86.5248 12.6815 86.4878 12.9339 86.4137 13.1715C86.3397 13.3942 86.2509 13.5872 86.1473 13.7506C85.9993 13.7209 85.8217 13.6986 85.6145 13.6837C85.4073 13.6689 85.1779 13.6615 84.9263 13.6615C84.5563 13.6615 84.164 13.706 83.7496 13.7951C83.3352 13.8842 82.9726 14.0178 82.6618 14.196ZM78.8876 15.9555H82.6618V21.8129C82.499 21.8575 82.2621 21.902 81.9513 21.9465C81.6553 21.9911 81.3297 22.0134 80.9745 22.0134C80.2492 22.0134 79.7164 21.8872 79.376 21.6347C79.0504 21.3823 78.8876 20.9146 78.8876 20.2316V15.9555Z" fill="#01ADB9"/>
<path d="M87.9264 8.00445C87.9264 7.44024 88.1188 6.96511 88.5036 6.57906C88.8884 6.19302 89.3842 6 89.9911 6C90.5979 6 91.0937 6.19302 91.4785 6.57906C91.8634 6.96511 92.0558 7.44024 92.0558 8.00445C92.0558 8.55382 91.8634 9.02895 91.4785 9.42984C91.0937 9.81589 90.5979 10.0089 89.9911 10.0089C89.3842 10.0089 88.8884 9.81589 88.5036 9.42984C88.1188 9.02895 87.9264 8.55382 87.9264 8.00445ZM88.104 15.9555H91.8782V21.8129C91.7154 21.8575 91.4785 21.902 91.1677 21.9465C90.8717 21.9911 90.5461 22.0134 90.1909 22.0134C89.4656 22.0134 88.9328 21.8872 88.5924 21.6347C88.2668 21.3823 88.104 20.9146 88.104 20.2316V15.9555ZM91.8782 17.9376H88.104V11.167C88.2668 11.1225 88.4962 11.078 88.7922 11.0334C89.103 10.9889 89.436 10.9666 89.7913 10.9666C90.5313 10.9666 91.0641 11.0928 91.3897 11.3452C91.7154 11.5828 91.8782 12.0505 91.8782 12.7483V17.9376Z" fill="#01ADB9"/>
<path d="M99.8534 22.1693C99.3206 22.1693 98.8469 22.1099 98.4325 21.9911C98.0329 21.8723 97.6555 21.7313 97.3003 21.5679V18.4053C97.5519 18.5984 97.8405 18.7765 98.1661 18.9399C98.4917 19.1032 98.8617 19.1849 99.2762 19.1849C100.016 19.1849 100.579 18.9473 100.963 18.4722C101.363 17.9822 101.563 17.2769 101.563 16.3563C101.563 15.7179 101.481 15.2056 101.319 14.8196C101.156 14.4187 100.912 14.1218 100.586 13.9287C100.275 13.7357 99.883 13.6392 99.4094 13.6392C99.1282 13.6392 98.8691 13.6763 98.6323 13.7506C98.3955 13.8099 98.1957 13.8842 98.0329 13.9733V20.6102H94.2809V13.3719C94.2809 12.971 94.3623 12.637 94.5251 12.3697C94.7027 12.1025 94.9396 11.8723 95.2356 11.6793C95.6944 11.3823 96.2864 11.1448 97.0117 10.9666C97.7369 10.7736 98.5361 10.6771 99.4094 10.6771C100.608 10.6771 101.659 10.8775 102.562 11.2784C103.465 11.6644 104.168 12.2806 104.671 13.1269C105.174 13.9584 105.426 15.0349 105.426 16.3563C105.426 17.6184 105.182 18.68 104.693 19.5412C104.205 20.4024 103.539 21.0557 102.695 21.5011C101.866 21.9465 100.919 22.1693 99.8534 22.1693ZM98.0551 19.6971V25.7996C97.8923 25.8441 97.6555 25.8886 97.3447 25.9332C97.0487 25.9777 96.723 26 96.3678 26C95.6426 26 95.1098 25.8738 94.7693 25.6214C94.4437 25.369 94.2809 24.9013 94.2809 24.2183V19.6971H98.0551Z" fill="#01ADB9"/>
<defs>
<filter id="filter0_f_511_1230" x="8.05299" y="5.38422" width="7.89819" height="10.493" filterUnits="userSpaceOnUse" color-interpolation-filters="sRGB">
<feFlood flood-opacity="0" result="BackgroundImageFix"/>
<feBlend mode="normal" in="SourceGraphic" in2="BackgroundImageFix" result="shape"/>
<feGaussianBlur stdDeviation="1.48316" result="effect1_foregroundBlur_511_1230"/>
</filter>
<linearGradient id="paint0_linear_511_1230" x1="24.8176" y1="-21.812" x2="9.3976" y2="-6.61219" gradientUnits="userSpaceOnUse">
<stop stop-color="#017179"/>
<stop offset="1" stop-color="#01ADB9"/>
</linearGradient>
<linearGradient id="paint1_linear_511_1230" x1="14.7947" y1="4.09339" x2="27.0633" y2="17.2843" gradientUnits="userSpaceOnUse">
<stop stop-color="white" stop-opacity="0"/>
<stop offset="1" stop-color="white"/>
</linearGradient>
<linearGradient id="paint2_linear_511_1230" x1="0.650368" y1="24.075" x2="14.7678" y2="20.9112" gradientUnits="userSpaceOnUse">
<stop stop-color="white" stop-opacity="0"/>
<stop offset="1" stop-color="white"/>
</linearGradient>
</defs>
</svg>
