<svg width="32" height="32" viewBox="0 0 32 32" fill="none" xmlns="http://www.w3.org/2000/svg">
<path fill-rule="evenodd" clip-rule="evenodd" d="M16 17.28C18.9817 17.28 21.6933 18.1683 23.6882 19.4202C24.6838 20.0448 25.535 20.7821 26.1497 21.5834C26.7545 22.3706 27.2 23.3126 27.2 24.32C27.2 25.4016 26.6886 26.2541 25.9518 26.8621C25.2549 27.4381 24.3353 27.8195 23.3584 28.0858C21.3947 28.6195 18.7739 28.8 16 28.8C13.2262 28.8 10.6054 28.6208 8.64162 28.0858C7.66473 27.8195 6.74508 27.4381 6.0482 26.8621C5.31024 26.2528 4.80002 25.4016 4.80002 24.32C4.80002 23.3126 5.24553 22.3706 5.85033 21.5821C6.46509 20.7821 7.31504 20.0461 8.31184 19.4189C10.3067 18.1696 13.0196 17.28 16 17.28ZM16 19.84C13.4825 19.84 11.2176 20.5952 9.60855 21.6051C8.8034 22.1094 8.19611 22.6573 7.80411 23.1693C7.40091 23.6941 7.28891 24.0909 7.28891 24.32C7.28891 24.4762 7.33495 24.6413 7.60624 24.8653C7.91611 25.1213 8.45495 25.3862 9.27877 25.6102C10.919 26.0582 13.2759 26.24 16 26.24C18.7254 26.24 21.0811 26.057 22.72 25.6102C23.5451 25.3862 24.0839 25.1213 24.3938 24.8653C24.6651 24.6413 24.7111 24.4762 24.7111 24.32C24.7111 24.0896 24.5991 23.6941 24.1972 23.1693C23.8039 22.6573 23.1966 22.1094 22.3915 21.6051C20.7824 20.5939 18.5175 19.84 16 19.84ZM16 3.2C17.6503 3.2 19.2329 3.87429 20.3998 5.07452C21.5667 6.27475 22.2222 7.90262 22.2222 9.6C22.2222 11.2974 21.5667 12.9253 20.3998 14.1255C19.2329 15.3257 17.6503 16 16 16C14.3498 16 12.7671 15.3257 11.6002 14.1255C10.4333 12.9253 9.7778 11.2974 9.7778 9.6C9.7778 7.90262 10.4333 6.27475 11.6002 5.07452C12.7671 3.87429 14.3498 3.2 16 3.2ZM16 5.76C15.5097 5.76 15.0243 5.85933 14.5713 6.05231C14.1184 6.24529 13.7068 6.52814 13.3602 6.88471C13.0135 7.24129 12.7385 7.66461 12.5509 8.1305C12.3632 8.59639 12.2667 9.09573 12.2667 9.6C12.2667 10.1043 12.3632 10.6036 12.5509 11.0695C12.7385 11.5354 13.0135 11.9587 13.3602 12.3153C13.7068 12.6719 14.1184 12.9547 14.5713 13.1477C15.0243 13.3407 15.5097 13.44 16 13.44C16.9902 13.44 17.9397 13.0354 18.6399 12.3153C19.34 11.5952 19.7334 10.6184 19.7334 9.6C19.7334 8.58157 19.34 7.60485 18.6399 6.88471C17.9397 6.16457 16.9902 5.76 16 5.76Z" fill="#01ADB9"/>
</svg>
