<svg width="20" height="20" viewBox="0 0 20 20" fill="none" xmlns="http://www.w3.org/2000/svg">
<path fill-rule="evenodd" clip-rule="evenodd" d="M4.16667 8.33333C4.16667 7.22826 4.60565 6.16846 5.38705 5.38706C6.16846 4.60565 7.22826 4.16667 8.33333 4.16667C9.4384 4.16667 10.4982 4.60565 11.2796 5.38706C12.061 6.16846 12.5 7.22826 12.5 8.33333C12.5 9.4384 12.061 10.4982 11.2796 11.2796C10.4982 12.061 9.4384 12.5 8.33333 12.5C7.22826 12.5 6.16846 12.061 5.38705 11.2796C4.60565 10.4982 4.16667 9.4384 4.16667 8.33333ZM8.33333 2.5C7.40938 2.5 6.49865 2.71948 5.67612 3.14036C4.8536 3.56124 4.14282 4.17148 3.60231 4.92084C3.0618 5.67019 2.70702 6.53722 2.5672 7.45053C2.42737 8.36384 2.50649 9.2973 2.79804 10.174C3.08959 11.0508 3.58524 11.8457 4.24416 12.4934C4.90308 13.1411 5.70644 13.623 6.58806 13.8995C7.46969 14.1759 8.40437 14.239 9.31514 14.0835C10.2259 13.9279 11.0867 13.5583 11.8267 13.005L16.0767 17.2558C16.2329 17.4122 16.4449 17.5001 16.666 17.5002C16.887 17.5002 17.099 17.4125 17.2554 17.2563C17.4118 17.1 17.4997 16.888 17.4998 16.667C17.4998 16.4459 17.4121 16.2339 17.2558 16.0775L13.0058 11.8275C13.6544 10.9604 14.0489 9.92994 14.1451 8.85139C14.2412 7.77284 14.0353 6.68882 13.5503 5.72067C13.0653 4.75253 12.3205 3.93848 11.3991 3.36967C10.4777 2.80086 9.41616 2.49973 8.33333 2.5Z" fill="#01ADB9"/>
</svg>
