<svg width="14" height="15" viewBox="0 0 14 15" fill="none" xmlns="http://www.w3.org/2000/svg">
<mask id="path-1-inside-1_398_1105" fill="white">
<path fill-rule="evenodd" clip-rule="evenodd" d="M6.56775 1.35307C6.59683 1.48116 6.6004 1.61372 6.57825 1.74318C6.55609 1.87264 6.50865 1.99647 6.43863 2.10759C6.36861 2.21872 6.27739 2.31496 6.17017 2.39083C6.06295 2.46669 5.94184 2.52069 5.81375 2.54974C5.69064 2.57774 5.5693 2.61018 5.44975 2.64707C5.32425 2.68586 5.19234 2.69954 5.06155 2.68735C4.93076 2.67515 4.80366 2.63732 4.68749 2.576C4.57132 2.51468 4.46837 2.43108 4.38451 2.32998C4.30066 2.22887 4.23753 2.11224 4.19875 1.98674C4.15997 1.86124 4.14628 1.72933 4.15848 1.59854C4.17067 1.46775 4.20851 1.34065 4.26982 1.22448C4.33114 1.10831 4.41474 1.00536 4.51584 0.921505C4.61695 0.837647 4.73358 0.774524 4.85908 0.73574C5.02708 0.68374 5.19753 0.638185 5.37042 0.599074C5.4985 0.56999 5.63106 0.566423 5.76052 0.588577C5.88998 0.610731 6.01381 0.658172 6.12494 0.72819C6.23606 0.798208 6.3323 0.889431 6.40817 0.99665C6.48403 1.10387 6.53803 1.22498 6.56708 1.35307M7.28308 1.35307C7.3419 1.0945 7.50101 0.869883 7.72542 0.728611C7.94983 0.587339 8.22116 0.540984 8.47975 0.59974C11.5977 1.30574 13.9257 4.09241 13.9257 7.42574C13.9257 11.2917 10.7917 14.4257 6.92575 14.4257C3.59308 14.4257 0.806415 12.0977 0.0990818 8.98041C0.0403805 8.72173 0.0868416 8.45033 0.228244 8.22592C0.369646 8.0015 0.594407 7.84244 0.853082 7.78374C1.11176 7.72504 1.38316 7.7715 1.60757 7.9129C1.83199 8.05431 1.99105 8.27907 2.04975 8.53774C2.24874 9.40876 2.67748 10.2105 3.29138 10.8597C3.90528 11.5088 4.68191 11.9816 5.54047 12.2289C6.39903 12.4761 7.30816 12.4888 8.17329 12.2656C9.03842 12.0424 9.82793 11.5915 10.4597 10.9597C11.0915 10.3279 11.5424 9.53841 11.7656 8.67328C11.9888 7.80816 11.9761 6.89902 11.7289 6.04046C11.4816 5.1819 11.0088 4.40527 10.3597 3.79137C9.71055 3.17747 8.90876 2.74873 8.03775 2.54974C7.77918 2.49092 7.55456 2.33181 7.41329 2.1074C7.27201 1.88299 7.22566 1.61166 7.28442 1.35307M3.57908 2.34641C3.75925 2.54086 3.85483 2.79888 3.84483 3.06378C3.83483 3.32868 3.72006 3.57876 3.52575 3.75907C3.43374 3.84479 3.3448 3.93374 3.25908 4.02574C3.16978 4.12204 3.06239 4.19981 2.94304 4.25461C2.82368 4.30941 2.6947 4.34017 2.56346 4.34512C2.43222 4.35007 2.30129 4.32912 2.17815 4.28348C2.055 4.23783 1.94205 4.16837 1.84575 4.07907C1.74945 3.98977 1.67167 3.88238 1.61688 3.76303C1.56208 3.64367 1.53132 3.51469 1.52637 3.38345C1.52142 3.25221 1.54236 3.12128 1.58801 2.99814C1.63366 2.87499 1.70312 2.76204 1.79242 2.66574C1.91242 2.53685 2.03686 2.41241 2.16575 2.29241C2.26205 2.2031 2.37499 2.13363 2.49814 2.08798C2.62129 2.04232 2.75222 2.02137 2.88346 2.02633C3.01471 2.03128 3.14369 2.06204 3.26304 2.11684C3.3824 2.17165 3.48979 2.25009 3.57908 2.34641ZM6.92575 3.09241C7.19096 3.09241 7.44532 3.19776 7.63286 3.3853C7.82039 3.57284 7.92575 3.82719 7.92575 4.09241V7.01174L9.63241 8.71841C9.72797 8.81061 9.8042 8.92092 9.85667 9.0429C9.90913 9.16488 9.93678 9.29608 9.938 9.42886C9.93921 9.56164 9.91397 9.69333 9.86375 9.81625C9.81353 9.93917 9.73933 10.0509 9.64548 10.1448C9.55163 10.2387 9.44001 10.313 9.31714 10.3634C9.19427 10.4137 9.0626 10.4391 8.92982 10.438C8.79704 10.4369 8.66581 10.4094 8.54378 10.357C8.42175 10.3047 8.31137 10.2285 8.21908 10.1331L6.21908 8.13307C6.12612 8.04022 6.05236 7.92997 6.00203 7.8086C5.9517 7.68723 5.92578 7.55713 5.92575 7.42574V4.09241C5.92575 3.82719 6.03111 3.57284 6.21864 3.3853C6.40618 3.19776 6.66053 3.09241 6.92575 3.09241ZM1.48575 4.69907C1.61132 4.73773 1.72804 4.80075 1.82925 4.88453C1.93046 4.96831 2.01416 5.07122 2.07558 5.18737C2.13699 5.30351 2.17492 5.43063 2.18719 5.56144C2.19946 5.69225 2.18583 5.8242 2.14708 5.94974C2.11036 6.06989 2.0779 6.1913 2.04975 6.31374C1.99105 6.57241 1.83199 6.79718 1.60757 6.93858C1.38316 7.07998 1.11176 7.12644 0.853082 7.06774C0.594407 7.00904 0.369646 6.84998 0.228244 6.62557C0.0868416 6.40115 0.0403805 6.12975 0.0990818 5.87107C0.138193 5.69774 0.183748 5.5273 0.235748 5.35974C0.27447 5.23423 0.337538 5.11757 0.421352 5.01644C0.505165 4.91531 0.608082 4.83168 0.724222 4.77033C0.840362 4.70897 0.967452 4.6711 1.09823 4.65888C1.22901 4.64665 1.36092 4.66031 1.48642 4.69907"/>
</mask>
<path fill-rule="evenodd" clip-rule="evenodd" d="M6.56775 1.35307C6.59683 1.48116 6.6004 1.61372 6.57825 1.74318C6.55609 1.87264 6.50865 1.99647 6.43863 2.10759C6.36861 2.21872 6.27739 2.31496 6.17017 2.39083C6.06295 2.46669 5.94184 2.52069 5.81375 2.54974C5.69064 2.57774 5.5693 2.61018 5.44975 2.64707C5.32425 2.68586 5.19234 2.69954 5.06155 2.68735C4.93076 2.67515 4.80366 2.63732 4.68749 2.576C4.57132 2.51468 4.46837 2.43108 4.38451 2.32998C4.30066 2.22887 4.23753 2.11224 4.19875 1.98674C4.15997 1.86124 4.14628 1.72933 4.15848 1.59854C4.17067 1.46775 4.20851 1.34065 4.26982 1.22448C4.33114 1.10831 4.41474 1.00536 4.51584 0.921505C4.61695 0.837647 4.73358 0.774524 4.85908 0.73574C5.02708 0.68374 5.19753 0.638185 5.37042 0.599074C5.4985 0.56999 5.63106 0.566423 5.76052 0.588577C5.88998 0.610731 6.01381 0.658172 6.12494 0.72819C6.23606 0.798208 6.3323 0.889431 6.40817 0.99665C6.48403 1.10387 6.53803 1.22498 6.56708 1.35307M7.28308 1.35307C7.3419 1.0945 7.50101 0.869883 7.72542 0.728611C7.94983 0.587339 8.22116 0.540984 8.47975 0.59974C11.5977 1.30574 13.9257 4.09241 13.9257 7.42574C13.9257 11.2917 10.7917 14.4257 6.92575 14.4257C3.59308 14.4257 0.806415 12.0977 0.0990818 8.98041C0.0403805 8.72173 0.0868416 8.45033 0.228244 8.22592C0.369646 8.0015 0.594407 7.84244 0.853082 7.78374C1.11176 7.72504 1.38316 7.7715 1.60757 7.9129C1.83199 8.05431 1.99105 8.27907 2.04975 8.53774C2.24874 9.40876 2.67748 10.2105 3.29138 10.8597C3.90528 11.5088 4.68191 11.9816 5.54047 12.2289C6.39903 12.4761 7.30816 12.4888 8.17329 12.2656C9.03842 12.0424 9.82793 11.5915 10.4597 10.9597C11.0915 10.3279 11.5424 9.53841 11.7656 8.67328C11.9888 7.80816 11.9761 6.89902 11.7289 6.04046C11.4816 5.1819 11.0088 4.40527 10.3597 3.79137C9.71055 3.17747 8.90876 2.74873 8.03775 2.54974C7.77918 2.49092 7.55456 2.33181 7.41329 2.1074C7.27201 1.88299 7.22566 1.61166 7.28442 1.35307M3.57908 2.34641C3.75925 2.54086 3.85483 2.79888 3.84483 3.06378C3.83483 3.32868 3.72006 3.57876 3.52575 3.75907C3.43374 3.84479 3.3448 3.93374 3.25908 4.02574C3.16978 4.12204 3.06239 4.19981 2.94304 4.25461C2.82368 4.30941 2.6947 4.34017 2.56346 4.34512C2.43222 4.35007 2.30129 4.32912 2.17815 4.28348C2.055 4.23783 1.94205 4.16837 1.84575 4.07907C1.74945 3.98977 1.67167 3.88238 1.61688 3.76303C1.56208 3.64367 1.53132 3.51469 1.52637 3.38345C1.52142 3.25221 1.54236 3.12128 1.58801 2.99814C1.63366 2.87499 1.70312 2.76204 1.79242 2.66574C1.91242 2.53685 2.03686 2.41241 2.16575 2.29241C2.26205 2.2031 2.37499 2.13363 2.49814 2.08798C2.62129 2.04232 2.75222 2.02137 2.88346 2.02633C3.01471 2.03128 3.14369 2.06204 3.26304 2.11684C3.3824 2.17165 3.48979 2.25009 3.57908 2.34641ZM6.92575 3.09241C7.19096 3.09241 7.44532 3.19776 7.63286 3.3853C7.82039 3.57284 7.92575 3.82719 7.92575 4.09241V7.01174L9.63241 8.71841C9.72797 8.81061 9.8042 8.92092 9.85667 9.0429C9.90913 9.16488 9.93678 9.29608 9.938 9.42886C9.93921 9.56164 9.91397 9.69333 9.86375 9.81625C9.81353 9.93917 9.73933 10.0509 9.64548 10.1448C9.55163 10.2387 9.44001 10.313 9.31714 10.3634C9.19427 10.4137 9.0626 10.4391 8.92982 10.438C8.79704 10.4369 8.66581 10.4094 8.54378 10.357C8.42175 10.3047 8.31137 10.2285 8.21908 10.1331L6.21908 8.13307C6.12612 8.04022 6.05236 7.92997 6.00203 7.8086C5.9517 7.68723 5.92578 7.55713 5.92575 7.42574V4.09241C5.92575 3.82719 6.03111 3.57284 6.21864 3.3853C6.40618 3.19776 6.66053 3.09241 6.92575 3.09241ZM1.48575 4.69907C1.61132 4.73773 1.72804 4.80075 1.82925 4.88453C1.93046 4.96831 2.01416 5.07122 2.07558 5.18737C2.13699 5.30351 2.17492 5.43063 2.18719 5.56144C2.19946 5.69225 2.18583 5.8242 2.14708 5.94974C2.11036 6.06989 2.0779 6.1913 2.04975 6.31374C1.99105 6.57241 1.83199 6.79718 1.60757 6.93858C1.38316 7.07998 1.11176 7.12644 0.853082 7.06774C0.594407 7.00904 0.369646 6.84998 0.228244 6.62557C0.0868416 6.40115 0.0403805 6.12975 0.0990818 5.87107C0.138193 5.69774 0.183748 5.5273 0.235748 5.35974C0.27447 5.23423 0.337538 5.11757 0.421352 5.01644C0.505165 4.91531 0.608082 4.83168 0.724222 4.77033C0.840362 4.70897 0.967452 4.6711 1.09823 4.65888C1.22901 4.64665 1.36092 4.66031 1.48642 4.69907" fill="#01ADB9"/>
<path d="M5.81375 2.54974L5.72528 2.15965L5.72504 2.1597L5.81375 2.54974ZM5.44975 2.64707L5.33181 2.26485L5.33165 2.26491L5.44975 2.64707ZM4.85908 0.73574L4.97718 1.11791L4.97736 1.11785L4.85908 0.73574ZM5.37042 0.599074L5.45867 0.989215L5.45899 0.989144L5.37042 0.599074ZM8.47975 0.59974L8.39112 0.989798L8.39141 0.989865L8.47975 0.59974ZM0.0990818 8.98041L0.489166 8.8919L0.489164 8.89189L0.0990818 8.98041ZM2.04975 8.53774L1.65967 8.62626L1.6598 8.62683L2.04975 8.53774ZM8.03775 2.54974L8.12683 2.15979L8.12647 2.1597L8.03775 2.54974ZM3.57908 2.34641L3.8725 2.07455L3.87241 2.07446L3.57908 2.34641ZM3.52575 3.75907L3.25367 3.46586L3.25308 3.46641L3.52575 3.75907ZM3.25908 4.02574L2.96642 3.75307L2.96577 3.75376L3.25908 4.02574ZM1.79242 2.66574L1.49966 2.39317L1.49911 2.39376L1.79242 2.66574ZM2.16575 2.29241L1.89375 1.99912L1.89318 1.99965L2.16575 2.29241ZM6.92575 3.09241V3.49241V3.09241ZM7.92575 4.09241H8.32575H7.92575ZM7.92575 7.01174H7.52575V7.17743L7.64291 7.29458L7.92575 7.01174ZM9.63241 8.71841L9.34953 9.0013L9.35466 9.00625L9.63241 8.71841ZM8.21908 10.1331L8.50671 9.85501L8.50192 9.85023L8.21908 10.1331ZM6.21908 8.13307L6.50192 7.85023L6.50175 7.85006L6.21908 8.13307ZM5.92575 7.42574H5.52575V7.42583L5.92575 7.42574ZM2.14708 5.94974L1.76487 5.83177L1.76455 5.83283L2.14708 5.94974ZM2.04975 6.31374L1.65991 6.22413L1.65967 6.22522L2.04975 6.31374ZM0.0990818 5.87107L0.489164 5.9596L0.489272 5.95912L0.0990818 5.87107ZM0.235748 5.35974L0.617775 5.4783L0.617972 5.47766L0.235748 5.35974ZM6.17768 1.44165C6.19513 1.5185 6.19727 1.59803 6.18398 1.67571L6.97251 1.81065C7.00353 1.6294 6.99854 1.44382 6.95782 1.2645L6.17768 1.44165ZM6.18398 1.67571C6.17068 1.75339 6.14222 1.82768 6.10021 1.89436L6.77706 2.32083C6.87508 2.16526 6.9415 1.99189 6.97251 1.81065L6.18398 1.67571ZM6.10021 1.89436C6.0582 1.96103 6.00346 2.01878 5.93913 2.0643L6.40121 2.71735C6.55132 2.61115 6.67903 2.47641 6.77706 2.32083L6.10021 1.89436ZM5.93913 2.0643C5.8748 2.10982 5.80213 2.14222 5.72528 2.15965L5.90222 2.93983C6.08155 2.89916 6.25111 2.82356 6.40121 2.71735L5.93913 2.0643ZM5.72504 2.1597C5.59218 2.18992 5.4611 2.22496 5.33181 2.26485L5.56768 3.02929C5.67751 2.9954 5.78909 2.96556 5.90246 2.93978L5.72504 2.1597ZM5.33165 2.26491C5.25633 2.28818 5.17717 2.29639 5.09869 2.28907L5.02441 3.08562C5.2075 3.10269 5.39216 3.08353 5.56785 3.02924L5.33165 2.26491ZM5.09869 2.28907C5.0202 2.28176 4.94392 2.25905 4.87421 2.22225L4.50077 2.92974C4.66339 3.01558 4.84132 3.06855 5.02441 3.08562L5.09869 2.28907ZM4.87421 2.22225C4.8045 2.18546 4.74272 2.13529 4.69239 2.07462L4.07663 2.58534C4.19403 2.72688 4.33815 2.8439 4.50077 2.92974L4.87421 2.22225ZM4.69239 2.07462C4.64207 2.01394 4.60419 1.94395 4.58092 1.86864L3.81658 2.10484C3.87087 2.28053 3.95924 2.4438 4.07663 2.58534L4.69239 2.07462ZM4.58092 1.86864C4.55764 1.79332 4.54943 1.71417 4.55675 1.63568L3.7602 1.56141C3.74313 1.7445 3.76229 1.92916 3.81658 2.10484L4.58092 1.86864ZM4.55675 1.63568C4.56407 1.55719 4.58677 1.48091 4.62357 1.4112L3.91608 1.03776C3.83024 1.20038 3.77728 1.37831 3.7602 1.56141L4.55675 1.63568ZM4.62357 1.4112C4.66037 1.34149 4.71053 1.27971 4.77121 1.22939L4.26048 0.613625C4.11895 0.731018 4.00192 0.875139 3.91608 1.03776L4.62357 1.4112ZM4.77121 1.22939C4.83188 1.17906 4.90187 1.14118 4.97718 1.11791L4.74098 0.353573C4.56529 0.407866 4.40202 0.496232 4.26048 0.613625L4.77121 1.22939ZM4.97736 1.11785C5.13538 1.06894 5.29581 1.02606 5.45867 0.989215L5.28216 0.208932C5.09924 0.250311 4.91878 0.298538 4.74081 0.353626L4.97736 1.11785ZM5.45899 0.989144C5.53584 0.971694 5.61537 0.969554 5.69305 0.982846L5.82799 0.194308C5.64674 0.163292 5.46116 0.168286 5.28184 0.209003L5.45899 0.989144ZM5.69305 0.982846C5.77073 0.996138 5.84503 1.0246 5.9117 1.06661L6.33817 0.389766C6.1826 0.291741 6.00923 0.225324 5.82799 0.194308L5.69305 0.982846ZM5.9117 1.06661C5.97838 1.10862 6.03612 1.16336 6.08164 1.22769L6.7347 0.76561C6.62849 0.615504 6.49375 0.487791 6.33817 0.389766L5.9117 1.06661ZM6.08164 1.22769C6.12716 1.29202 6.15956 1.36469 6.17699 1.44154L6.95718 1.2646C6.91651 1.08528 6.84091 0.915717 6.7347 0.76561L6.08164 1.22769ZM7.67312 1.4418C7.70841 1.28666 7.80388 1.15188 7.93852 1.06712L7.51232 0.390102C7.19815 0.587883 6.97539 0.902353 6.89305 1.26435L7.67312 1.4418ZM7.93852 1.06712C8.07317 0.982357 8.23597 0.954544 8.39112 0.989798L8.56838 0.209683C8.20636 0.127424 7.8265 0.192321 7.51232 0.390102L7.93852 1.06712ZM8.39141 0.989865C11.3311 1.6555 13.5257 4.28335 13.5257 7.42574H14.3257C14.3257 3.90146 11.8644 0.955982 8.56808 0.209616L8.39141 0.989865ZM13.5257 7.42574C13.5257 11.0708 10.5708 14.0257 6.92575 14.0257V14.8257C11.0127 14.8257 14.3257 11.5127 14.3257 7.42574H13.5257ZM6.92575 14.0257C3.78406 14.0257 1.15609 11.8311 0.489166 8.8919L-0.291002 9.06892C0.45674 12.3643 3.4021 14.8257 6.92575 14.8257V14.0257ZM0.489164 8.89189C0.45394 8.73667 0.481819 8.57381 0.566668 8.43915L-0.11018 8.01268C-0.308136 8.32685 -0.373179 8.7068 -0.291 9.06893L0.489164 8.89189ZM0.566668 8.43915C0.651517 8.30449 0.786385 8.20905 0.941603 8.17382L0.76456 7.39366C0.402429 7.47584 0.0877761 7.69851 -0.11018 8.01268L0.566668 8.43915ZM0.941603 8.17382C1.09682 8.1386 1.25968 8.16648 1.39434 8.25133L1.82081 7.57448C1.50664 7.37652 1.12669 7.31148 0.76456 7.39366L0.941603 8.17382ZM1.39434 8.25133C1.529 8.33618 1.62444 8.47104 1.65967 8.62626L2.43983 8.44922C2.35765 8.08709 2.13498 7.77244 1.82081 7.57448L1.39434 8.25133ZM1.6598 8.62683C1.8747 9.56752 2.33775 10.4335 3.00076 11.1345L3.582 10.5848C3.01722 9.98763 2.62277 9.24999 2.4397 8.44865L1.6598 8.62683ZM3.00076 11.1345C3.66377 11.8356 4.50253 12.3462 5.42977 12.6133L5.65117 11.8445C4.86129 11.617 4.14679 11.1821 3.582 10.5848L3.00076 11.1345ZM5.42977 12.6133C6.35702 12.8803 7.33888 12.894 8.27322 12.6529L8.07336 11.8783C7.27744 12.0836 6.44104 12.072 5.65117 11.8445L5.42977 12.6133ZM8.27322 12.6529C9.20756 12.4119 10.0602 11.9248 10.7425 11.2425L10.1769 10.6768C9.59563 11.2581 8.86928 11.6729 8.07336 11.8783L8.27322 12.6529ZM10.7425 11.2425C11.4249 10.5602 11.9119 9.70755 12.1529 8.77321L11.3783 8.57335C11.173 9.36927 10.7581 10.0956 10.1769 10.6768L10.7425 11.2425ZM12.1529 8.77321C12.394 7.83888 12.3803 6.85701 12.1133 5.92977L11.3445 6.15116C11.572 6.94104 11.5837 7.77744 11.3783 8.57335L12.1529 8.77321ZM12.1133 5.92977C11.8462 5.00252 11.3356 4.16376 10.6345 3.50075L10.0849 4.082C10.6821 4.64678 11.117 5.36128 11.3445 6.15116L12.1133 5.92977ZM10.6345 3.50075C9.93346 2.83774 9.06753 2.37469 8.12683 2.15979L7.94866 2.93969C8.75 3.12276 9.48764 3.51721 10.0849 4.082L10.6345 3.50075ZM8.12647 2.1597C7.97133 2.12441 7.83656 2.02895 7.75179 1.8943L7.07478 2.3205C7.27256 2.63468 7.58703 2.85743 7.94902 2.93978L8.12647 2.1597ZM7.75179 1.8943C7.66703 1.75965 7.63922 1.59685 7.67447 1.4417L6.89436 1.26444C6.8121 1.62646 6.877 2.00633 7.07478 2.3205L7.75179 1.8943ZM3.28567 2.61827C3.39376 2.73494 3.45112 2.88975 3.44511 3.04869L4.24455 3.07887C4.25855 2.70802 4.12473 2.34678 3.8725 2.07455L3.28567 2.61827ZM3.44511 3.04869C3.43911 3.20763 3.37025 3.35768 3.25367 3.46587L3.79783 4.05228C4.06987 3.79984 4.23054 3.44972 4.24455 3.07887L3.44511 3.04869ZM3.25308 3.46641C3.15418 3.55855 3.05856 3.65417 2.96642 3.75307L3.55175 4.29841C3.63104 4.2133 3.71331 4.13103 3.79841 4.05174L3.25308 3.46641ZM2.96577 3.75376C2.91219 3.81155 2.84775 3.85822 2.77614 3.8911L3.10994 4.61813C3.27703 4.54141 3.42737 4.43254 3.55239 4.29772L2.96577 3.75376ZM2.77614 3.8911C2.70452 3.92398 2.62713 3.94243 2.54838 3.9454L2.57854 4.74483C2.76228 4.7379 2.94284 4.69485 3.10994 4.61813L2.77614 3.8911ZM2.54838 3.9454C2.46963 3.94837 2.39107 3.93581 2.31717 3.90842L2.03912 4.65854C2.21151 4.72244 2.39481 4.75177 2.57854 4.74483L2.54838 3.9454ZM2.31717 3.90842C2.24328 3.88102 2.17551 3.83935 2.11772 3.78577L1.57377 4.37238C1.70859 4.4974 1.86672 4.59463 2.03912 4.65854L2.31717 3.90842ZM2.11772 3.78577C2.05994 3.73218 2.01327 3.66774 1.98039 3.59613L1.25336 3.92993C1.33008 4.09702 1.43895 4.24737 1.57377 4.37238L2.11772 3.78577ZM1.98039 3.59613C1.94751 3.52451 1.92906 3.44712 1.92609 3.36837L1.12666 3.39854C1.13359 3.58227 1.17664 3.76284 1.25336 3.92993L1.98039 3.59613ZM1.92609 3.36837C1.92311 3.28962 1.93568 3.21106 1.96307 3.13717L1.21295 2.85911C1.14905 3.03151 1.11972 3.2148 1.12666 3.39854L1.92609 3.36837ZM1.96307 3.13717C1.99046 3.06327 2.03214 2.9955 2.08572 2.93772L1.49911 2.39376C1.37409 2.52858 1.27686 2.68671 1.21295 2.85911L1.96307 3.13717ZM2.08517 2.93831C2.19869 2.81639 2.3164 2.69868 2.43832 2.58516L1.89318 1.99965C1.75732 2.12614 1.62615 2.25732 1.49966 2.39317L2.08517 2.93831ZM2.43775 2.58569C2.49553 2.5321 2.5633 2.49042 2.63718 2.46303L2.35909 1.71292C2.18669 1.77684 2.02856 1.87409 1.89375 1.99912L2.43775 2.58569ZM2.63718 2.46303C2.71107 2.43564 2.78963 2.42307 2.86838 2.42604L2.89855 1.62661C2.71481 1.61968 2.5315 1.64901 2.35909 1.71292L2.63718 2.46303ZM2.86838 2.42604C2.94712 2.42901 3.02451 2.44747 3.09613 2.48035L3.42996 1.75333C3.26286 1.6766 3.08229 1.63354 2.89855 1.62661L2.86838 2.42604ZM3.09613 2.48035C3.16673 2.51277 3.23141 2.55974 3.28575 2.61836L3.87241 2.07446C3.74817 1.94045 3.59807 1.83053 3.42996 1.75333L3.09613 2.48035ZM6.92575 3.49241C7.08488 3.49241 7.23749 3.55562 7.35001 3.66814L7.9157 3.10246C7.65315 2.83991 7.29705 2.69241 6.92575 2.69241V3.49241ZM7.35001 3.66814C7.46253 3.78066 7.52575 3.93328 7.52575 4.09241H8.32575C8.32575 3.7211 8.17825 3.36501 7.9157 3.10246L7.35001 3.66814ZM7.52575 4.09241V7.01174H8.32575V4.09241H7.52575ZM7.64291 7.29458L9.34957 9.00125L9.91526 8.43556L8.20859 6.7289L7.64291 7.29458ZM9.35466 9.00625C9.412 9.06157 9.45774 9.12776 9.48921 9.20095L10.2241 8.88485C10.1507 8.71408 10.0439 8.55965 9.91017 8.43056L9.35466 9.00625ZM9.48921 9.20095C9.52069 9.27413 9.53728 9.35286 9.53801 9.43252L10.338 9.4252C10.3363 9.23931 10.2976 9.05562 10.2241 8.88485L9.48921 9.20095ZM9.53801 9.43252C9.53874 9.51219 9.5236 9.59121 9.49347 9.66496L10.234 9.96754C10.3043 9.79545 10.3397 9.61109 10.338 9.4252L9.53801 9.43252ZM9.49347 9.66496C9.46333 9.73871 9.41881 9.80572 9.3625 9.86208L9.92845 10.4275C10.0598 10.296 10.1637 10.1396 10.234 9.96754L9.49347 9.66496ZM9.3625 9.86208C9.30619 9.91844 9.23922 9.96303 9.1655 9.99323L9.46878 10.7335C9.6408 10.663 9.79707 10.559 9.92845 10.4275L9.3625 9.86208ZM9.1655 9.99323C9.09178 10.0234 9.01278 10.0387 8.93311 10.038L8.92654 10.838C9.11243 10.8395 9.29676 10.804 9.46878 10.7335L9.1655 9.99323ZM8.93311 10.038C8.85344 10.0373 8.7747 10.0208 8.70148 9.98942L8.38608 10.7246C8.55692 10.7979 8.74065 10.8364 8.92654 10.838L8.93311 10.038ZM8.70148 9.98942C8.62827 9.95801 8.56204 9.91233 8.50666 9.85505L7.9315 10.4111C8.06071 10.5447 8.21524 10.6513 8.38608 10.7246L8.70148 9.98942ZM8.50192 9.85023L6.50192 7.85023L5.93624 8.41592L7.93624 10.4159L8.50192 9.85023ZM6.50175 7.85006C6.44597 7.79435 6.40172 7.72819 6.37152 7.65537L5.63254 7.96182C5.70301 8.13174 5.80626 8.2861 5.93641 8.41609L6.50175 7.85006ZM6.37152 7.65537C6.34132 7.58255 6.32577 7.50449 6.32575 7.42566L5.52575 7.42583C5.52579 7.60977 5.56208 7.79191 5.63254 7.96182L6.37152 7.65537ZM6.32575 7.42574V4.09241H5.52575V7.42574H6.32575ZM6.32575 4.09241C6.32575 3.93328 6.38896 3.78066 6.50148 3.66814L5.9358 3.10246C5.67325 3.36501 5.52575 3.7211 5.52575 4.09241H6.32575ZM6.50148 3.66814C6.61401 3.55562 6.76662 3.49241 6.92575 3.49241V2.69241C6.55445 2.69241 6.19835 2.83991 5.9358 3.10246L6.50148 3.66814ZM1.36807 5.08137C1.44342 5.10456 1.51345 5.14238 1.57417 5.19265L2.08433 4.57641C1.94264 4.45912 1.77923 4.37089 1.60342 4.31677L1.36807 5.08137ZM1.57417 5.19265C1.6349 5.24292 1.68512 5.30466 1.72197 5.37435L2.42918 5.00038C2.3432 4.83778 2.22601 4.69371 2.08433 4.57641L1.57417 5.19265ZM1.72197 5.37435C1.75882 5.44404 1.78158 5.5203 1.78894 5.59879L2.58544 5.52409C2.56827 5.34095 2.51517 5.16299 2.42918 5.00038L1.72197 5.37435ZM1.78894 5.59879C1.7963 5.67728 1.78812 5.75645 1.76487 5.83177L2.52929 6.06771C2.58354 5.89195 2.60262 5.70722 2.58544 5.52409L1.78894 5.59879ZM1.76455 5.83283C1.72507 5.96199 1.69017 6.0925 1.65992 6.22413L2.43958 6.40336C2.46562 6.2901 2.49565 6.17779 2.52961 6.06666L1.76455 5.83283ZM1.65967 6.22522C1.62444 6.38044 1.529 6.51531 1.39434 6.60015L1.82081 7.277C2.13498 7.07905 2.35765 6.76439 2.43983 6.40226L1.65967 6.22522ZM1.39434 6.60015C1.25968 6.685 1.09682 6.71288 0.941603 6.67766L0.76456 7.45782C1.12669 7.54 1.50664 7.47496 1.82081 7.277L1.39434 6.60015ZM0.941603 6.67766C0.786385 6.64244 0.651517 6.54699 0.566668 6.41233L-0.11018 6.8388C0.0877761 7.15298 0.402429 7.37564 0.76456 7.45782L0.941603 6.67766ZM0.566668 6.41233C0.481819 6.27767 0.45394 6.11481 0.489164 5.9596L-0.291 5.78255C-0.373179 6.14468 -0.308136 6.52463 -0.11018 6.8388L0.566668 6.41233ZM0.489272 5.95912C0.526094 5.79593 0.568936 5.63567 0.617774 5.4783L-0.146277 5.24118C-0.201439 5.41893 -0.249708 5.59955 -0.291108 5.78303L0.489272 5.95912ZM0.617972 5.47766C0.641205 5.40235 0.679047 5.33236 0.729334 5.27168L0.113369 4.7612C-0.00396968 4.90279 -0.0922655 5.0661 -0.146475 5.24182L0.617972 5.47766ZM0.729334 5.27168C0.779622 5.211 0.841372 5.16082 0.911056 5.12401L0.537387 4.41664C0.374792 4.50253 0.230709 4.61962 0.113369 4.7612L0.729334 5.27168ZM0.911056 5.12401C0.980741 5.0872 1.05699 5.06448 1.13546 5.05714L1.061 4.26062C0.877908 4.27773 0.699984 4.33075 0.537387 4.41664L0.911056 5.12401ZM1.13546 5.05714C1.21393 5.04981 1.29307 5.058 1.36837 5.08126L1.60446 4.31689C1.42876 4.26262 1.24409 4.2435 1.061 4.26062L1.13546 5.05714Z" fill="#F0F0F0" mask="url(#path-1-inside-1_398_1105)"/>
</svg>
